<svg xmlns="http://www.w3.org/2000/svg" viewBox="0 0 1024 1024" width="1024" height="1024">
  <!-- Background (square, no rounded corners) -->
  <rect width="1024" height="1024" fill="#334155"/>

  <!-- Sun rays (thick, short, rounded caps) — only upper half visible -->
  <!-- Center at y=370, top ray tip at y=185 (18% from top, above 15% threshold) -->
  <g transform="translate(512, 480)" stroke="#F97316" stroke-width="30" stroke-linecap="round">
    <line x1="0" y1="-130" x2="0" y2="-185"/>
    <line x1="0" y1="-130" x2="0" y2="-185" transform="rotate(25)"/>
    <line x1="0" y1="-130" x2="0" y2="-185" transform="rotate(50)"/>
    <line x1="0" y1="-130" x2="0" y2="-185" transform="rotate(75)"/>
    <line x1="0" y1="-130" x2="0" y2="-185" transform="rotate(-25)"/>
    <line x1="0" y1="-130" x2="0" y2="-185" transform="rotate(-50)"/>
    <line x1="0" y1="-130" x2="0" y2="-185" transform="rotate(-75)"/>
  </g>

  <!-- Sun full circle -->
  <circle cx="512" cy="480" r="110" fill="#F97316"/>
  <!-- Mask bottom half of sun + bottom rays -->
  <rect x="0" y="480" width="1024" height="654" fill="#334155"/>

  <!-- Solar Panel Array — trapezoid perspective (wider at bottom, narrower at top) -->
  <g transform="translate(512, 640)">
    <!-- Panel frame (dark navy trapezoid) -->
    <polygon points="-170,-160 170,-160 240,160 -240,160" fill="#1E3A5F"/>

    <!-- Row 1 (top, narrowest) -->
    <polygon points="-158,-148 -6,-148 -6,-74 -170,-74" fill="#3B82F6"/>
    <polygon points="6,-148 158,-148 170,-74 6,-74" fill="#3B82F6"/>

    <!-- Row 2 -->
    <polygon points="-178,-62 -6,-62 -6,12 -190,12" fill="#3B82F6"/>
    <polygon points="6,-62 178,-62 190,12 6,12" fill="#3B82F6"/>

    <!-- Row 3 -->
    <polygon points="-198,24 -6,24 -6,98 -210,98" fill="#3B82F6"/>
    <polygon points="6,24 198,24 210,98 6,98" fill="#3B82F6"/>

    <!-- Row 4 (bottom, widest) -->
    <polygon points="-213,110 -6,110 -6,148 -222,148" fill="#3B82F6"/>
    <polygon points="6,110 213,110 218,148 6,148" fill="#3B82F6"/>
  </g>
</svg>
